ply
format ascii 1.0
comment object: cylinder
element vertex 12
property float x
property float y
property float z
property uchar red
property uchar green
property uchar blue
element face 3
property list uchar int vertex_index
end_header
0.5 0.5 0 255 255 0
0.5 -0.5 0 255 255 0
-0.5 -0.5 0 255 255 0
-0.5 0.5 0 255 255 0
0.5 0.5 1 255 255 0
0.5 -0.5 1 255 255 0
-0.5 -0.5 1 255 255 0
-0.5 0.5 1 255 255 0
0 0 0.5 255 0 0
0 0 -0.5 255 0 0
0 0.5 0 255 255 0
0 -0.5 0 255 255 0
4 0 1 2 3
4 4 5 6 7
4 0 1 5 4
